Coordinates
version=1
nRows=14
nColumns=24
inDegrees=yes

Units are S.I. units (second, meters, Newtons, ...)
Angles are in degrees.

endheader
time	pelvis_tilt	pelvis_list	pelvis_rotation	pelvis_tx	pelvis_ty	pelvis_tz	hip_flexion_r	hip_adduction_r	hip_rotation_r	knee_angle_r	ankle_angle_r	subtalar_angle_r	mtp_angle_r	hip_flexion_l	hip_adduction_l	hip_rotation_l	knee_angle_l	ankle_angle_l	subtalar_angle_l	mtp_angle_l	lumbar_extension	lumbar_bending	lumbar_rotation
      1.33333333	     -7.48221512	      2.95015714	     -4.22286544	      0.26576034	      0.99020727	      0.31942273	     23.77664915	     -2.67370824	      1.50126157	    -66.21699493	    -11.26744170	      4.31410756	    -43.10767436	     11.61896862	      7.57925878	     -5.16821020	     -2.75689758	    -22.97761579	    -13.28380218	     -9.17416251	     21.59136090	     -2.00876223	      4.24297465
      1.33750000	     -7.45288110	      2.86552069	     -4.17746874	      0.27077176	      0.99071105	      0.31922517	     24.44722726	     -2.47789458	      1.64035706	    -66.30184764	    -10.65779717	      4.29747127	    -43.10973305	     11.13900064	      7.53425136	     -5.08954859	     -2.56752084	    -22.77842037	    -13.14225785	     -9.17584310	     21.51273043	     -1.92501060	      4.12161178
      1.34166667	     -7.42687753	      2.78092843	     -4.13003683	      0.27577323	      0.99118890	      0.31903641	     25.10561773	     -2.27963491	      1.78003258	    -66.32189921	    -10.06642465	      4.30144801	    -43.11416314	     10.66169449	      7.48818963	     -5.00759897	     -2.37536384	    -22.58309921	    -13.01240514	     -9.17871705	     21.44003577	     -1.84303384	      4.00258160
      1.34583333	     -7.41256442	      2.71859675	     -4.09929039	      0.28075076	      0.99160386	      0.31881399	     25.77379312	     -2.10494363	      1.93916553	    -66.24451476	     -9.74618190	      4.26905473	    -43.11455874	     10.19222425	      7.47421894	     -4.88282611	     -2.15190086	    -22.47315633	    -12.94407640	     -9.17875991	     21.36426025	     -1.72387564	      3.92267102
      1.35000000	     -7.36771669	      2.61637269	     -4.02133012	      0.28578598	      0.99208481	      0.31867981	     26.35349400	     -1.88738436	      2.04607410	    -66.15926166	     -8.95433836	      4.32303664	    -43.11558904	      9.69522550	      7.40417387	     -4.82572198	     -1.98101954	    -22.20705371	    -12.81524162	     -9.18287966	     21.28747507	     -1.69131694	      3.79662351
      1.35416667	     -7.35938364	      2.55693533	     -3.99067700	      0.29074107	      0.99242672	      0.31853446	     26.99302722	     -1.70464051	      2.21225038	    -65.95836923	     -8.66017762	      4.34129813	    -43.11799682	      9.22865784	      7.38560725	     -4.69330463	     -1.74658440	    -22.09937663	    -12.74919965	     -9.18413500	     21.22655788	     -1.58544523	      3.71346510
      1.35833333	     -7.33525005	      2.47792996	     -3.94532094	      0.29578455	      0.99279045	      0.31838018	     27.57318663	     -1.50764763	      2.35330486	    -65.71474749	     -8.14971492	      4.37404331	    -43.11821308	      8.73512964	      7.34751895	     -4.57741839	     -1.52089196	    -21.91477919	    -12.67467146	     -9.18634079	     21.18980886	     -1.50239633	      3.61089729
      1.36250000	     -7.29737748	      2.39874969	     -3.88764068	      0.30079317	      0.99315346	      0.31828179	     28.11599618	     -1.30635388	      2.49569546	    -65.40573788	     -7.63788654	      4.45137430	    -43.12010696	      8.22992132	      7.30465709	     -4.45937842	     -1.30071874	    -21.72837795	    -12.60242444	     -9.18998084	     21.11825198	     -1.43448917	      3.49980036
      1.36666667	     -7.26410883	      2.31274330	     -3.81577006	      0.30582144	      0.99348487	      0.31812487	     28.63782668	     -1.11309116	      2.62155326	    -65.02778499	     -7.15490294	      4.56315075	    -43.12500990	      7.73173536	      7.26025705	     -4.35363246	     -1.08494498	    -21.54477842	    -12.53580711	     -9.19574531	     21.03797974	     -1.37891517	      3.38146184
      1.37083333	     -7.18458645	      2.20317988	     -3.69645483	      0.31081866	      0.99388839	      0.31796699	     29.06876345	     -0.91355724	      2.70630557	    -64.58838980	     -6.54076160	      4.80223583	    -43.14397698	      7.19772128	      7.18998800	     -4.26895411	     -0.90635707	    -21.31215277	    -12.45894384	     -9.21328931	     20.86104364	     -1.35198870	      3.19081009
      1.37500000	     -7.19312161	      2.15301237	     -3.65680787	      0.31579229	      0.99404562	      0.31790792	     29.62156352	     -0.73432365	      2.86204751	    -64.07943215	     -6.31599568	      4.80080441	    -43.15139032	      6.74039626	      7.17651661	     -4.15224858	     -0.65196798	    -21.22674211	    -12.44602451	     -9.21879307	     20.84485284	     -1.30261045	      3.11820957
      1.37916667	     -7.12526383	      2.04682815	     -3.54509526	      0.32087042	      0.99437409	      0.31773305	     30.01718221	     -0.54472162	      2.93013558	    -63.50364209	     -5.81776325	      4.91774170	    -43.17310442	      6.19321624	      7.11601339	     -4.02056427	     -0.42912387	    -21.02184874	    -12.45059049	     -9.23910371	     20.72017088	     -1.22633271	      2.93807384
      1.38333333	     -7.13876821	      2.00430036	     -3.50834353	      0.32585006	      0.99444728	      0.31769840	     30.53290127	     -0.37553564	      3.08065485	    -62.88213765	     -5.60518079	      4.90774394	    -43.18155998	      5.73534244	      7.11089443	     -3.90036558	     -0.16450355	    -20.93762993	    -12.45526641	     -9.24603146	     20.71432564	     -1.21279312	      2.87088902
      1.38750000	     -7.12768830	      1.93627683	     -3.44550663	      0.33090367	      0.99456618	      0.31763131	     30.97563337	     -0.19774625	      3.19017254	    -62.19003924	     -5.32982206	      4.90256727	    -43.19035069	      5.24110513	      7.08336937	     -3.77613796	      0.09950772	    -20.81344031	    -12.49282829	     -9.25449885	     20.70522537	     -1.16309872	      2.78058060
